<svg xmlns="http://www.w3.org/2000/svg" xmlns:xlink="http://www.w3.org/1999/xlink" width="30" height="31" viewBox="0 0 30 31"><defs><path id="vjpma" d="M546.99 946.1a3.06 3.06 0 0 1-3.05 3.06 3.06 3.06 0 0 1-3.05-3.05 3.06 3.06 0 0 1 3.05-3.05 3.06 3.06 0 0 1 3.05 3.05zm-1.02 0c0-1.11-.91-2.02-2.03-2.02-1.12 0-2.03.91-2.03 2.03 0 1.12.91 2.03 2.03 2.03 1.12 0 2.03-.91 2.03-2.03z"/><path id="vjpmb" d="M544.45 951.7c.46.86.56 1.88.2 2.8l-3.5 10.2a1.78 1.78 0 0 1-1.88 1.17l-7.67-1.06a.47.47 0 0 0-.56.35l-2.84 6.96c-.2.66-.76 1.17-1.47 1.37-.16.05-.3.05-.51.05-.56 0-1.12-.25-1.58-.7-.45-.47-.6-1.13-.45-1.79l3.4-9.8c.2-.71.91-1.17 1.68-1.07l5.13.61c.3.05.66-.15.76-.45l2.8-8.13a3.6 3.6 0 0 1 4.31-2.29c.96.26 1.73.92 2.18 1.78zm-.86.36a2.63 2.63 0 0 0-1.57-1.27 2.59 2.59 0 0 0-3.1 1.62l-2.8 8.13a1.72 1.72 0 0 1-1.82 1.17l-5.14-.61c-.05.05-.1.05-.1.05-.25 0-.45.15-.5.35l-3.4 9.86c-.06.25 0 .6.2.76.35.36.7.46 1.11.36.36-.1.66-.36.76-.72l2.9-7.06c.2-.66.91-1.11 1.68-1.01l7.67 1.06c.35.06.66-.15.76-.45l3.5-10.21c.26-.66.16-1.37-.15-2.03z"/><path id="vjpmc" d="M522.1 950.17v-4.06c0-.3.2-.5.5-.5h7.63v-2.04c0-.2.1-.4.3-.46.2-.1.4-.05.56.1l4.57 4.58c.2.2.2.5 0 .7l-4.57 4.58c-.1.1-.2.15-.36.15-.05 0-.15 0-.2-.05-.2-.05-.3-.25-.3-.46v-2.03h-7.62c-.3 0-.51-.2-.51-.5zm1.02-.5h7.61c.31 0 .51.2.51.5v1.32l3.36-3.35-3.36-3.35v1.32c0 .3-.2.5-.5.5h-7.62z"/><path id="vjpmd" d="M524.18 960.33c0 1.27-1.12 2.34-1.17 2.4-.15.1-.3.14-.4.14a.46.46 0 0 1-.36-.15.5.5 0 0 1 0-.7c.25-.21.86-.97.86-1.69 0-.35-.15-.7-.3-1.01l-.15-.3v-.06a.43.43 0 0 1-.09-.13c-.47 0-.95.03-1.42.07.2.35.44.85.44 1.43 0 1.27-1.12 2.34-1.17 2.4-.1.1-.25.14-.35.14a.46.46 0 0 1-.36-.15.5.5 0 0 1 0-.7c.25-.21.86-.97.86-1.69 0-.35-.15-.7-.3-1.01l-.15-.3V959c-.67.08-1.33.19-1.98.32h-.1c-.1 0-.2-.05-.31-.1-.1-.1-.2-.2-.2-.36l-.51-5.08c-.05-.25.15-.5.4-.56a30.6 30.6 0 0 1 11.38 0c.26.05.4.3.4.56l-.5 5.08c0 .15-.1.26-.2.36-.1.1-.26.1-.4.1-.59-.12-1.16-.2-1.74-.28.18.34.36.78.36 1.3 0 1.26-1.12 2.33-1.17 2.38-.15.1-.3.15-.4.15a.46.46 0 0 1-.36-.15.5.5 0 0 1 0-.7c.2-.21.86-.97.86-1.69 0-.35-.15-.7-.3-1.01l-.15-.3v-.06a.2.2 0 0 1-.04-.05c-.49-.04-.97-.07-1.46-.08l.02.03c.2.36.46.86.46 1.47zm-5.69-2.13l1.19-.17a2.4 2.4 0 0 1-.12-.74c0-.61.25-1.12.45-1.48.06-.1.1-.15.1-.25.1-.25.41-.36.67-.25.25.1.35.4.25.66l-.15.3c-.15.3-.3.66-.3 1.02 0 .2.05.42.13.62.49-.05.97-.08 1.45-.1a2.32 2.32 0 0 1-.06-.52c0-.61.25-1.12.45-1.48.06-.1.1-.15.1-.25.1-.25.41-.36.67-.25.25.1.35.4.25.66l-.15.3c-.15.3-.3.66-.3 1.02 0 .17.03.34.09.5.5 0 1 .03 1.5.06a2.33 2.33 0 0 1-.07-.56c0-.61.25-1.12.45-1.48.05-.1.1-.15.1-.25.1-.25.41-.36.67-.25.25.1.35.4.25.66l-.15.3c-.15.3-.3.66-.3 1.02 0 .22.05.44.15.65.64.07 1.28.16 1.93.26l.4-4.06a30.38 30.38 0 0 0-10.06 0z"/></defs><g><g transform="translate(-517 -943)"><use fill="#de1f26" xlink:href="#vjpma"/></g><g transform="translate(-517 -943)"><use fill="#de1f26" xlink:href="#vjpmb"/></g><g transform="translate(-517 -943)"><use fill="#de1f26" xlink:href="#vjpmc"/></g><g transform="translate(-517 -943)"><use fill="#de1f26" xlink:href="#vjpmd"/></g></g></svg>