<svg xmlns="http://www.w3.org/2000/svg" xmlns:xlink="http://www.w3.org/1999/xlink" width="30" height="15" viewBox="0 0 30 15"><defs><path id="fbwna" d="M213 956.5v3.5c0 1.4-1.1 2.5-2.5 2.5h-1.04a3.01 3.01 0 0 1-2.96 2.5 3.01 3.01 0 0 1-2.96-2.5h-10.08a3.01 3.01 0 0 1-2.96 2.5 3.01 3.01 0 0 1-2.96-2.5h-2.04c-1.4 0-2.5-1.1-2.5-2.5v-2.25c0-1.25.95-2.3 2.2-2.5l3.05-.4c.71-.1 1.4-.28 2.04-.54l.94-.47a8.26 8.26 0 0 0 2.02-1.64l.7-.7c.5-.6 1.15-1.2 1.9-1.45.05-.05.1-.05.15-.05h8c1.5.1 2.8.85 3.55 2.1l.15.25c.6.95 1.65 1.55 2.95 1.65 1.3.1 2.35 1.2 2.35 2.5zm-20.5 5.5a2 2 0 0 0-2-2 2 2 0 0 0-2 2c0 1.1.9 2 2 2a2 2 0 0 0 2-2zm16 0a2 2 0 0 0-2-2 2 2 0 0 0-2 2c0 1.1.9 2 2 2a2 2 0 0 0 2-2zm3.5-5.5c0-.8-.6-1.45-1.4-1.5-1.6-.1-3-.9-3.75-2.15l-.15-.25c-.6-.95-1.6-1.6-2.75-1.65l-7.85.05c-.5.2-1 .7-1.4 1.15l-.7.8a8.82 8.82 0 0 1-5.65 2.95l-3.05.4c-.75.05-1.3.7-1.3 1.45V960c0 .85.65 1.5 1.5 1.5h2.04c.17-1 .83-1.83 1.73-2.23l.06-.03.04-.02.1-.03.02-.01.11-.04h.03a3 3 0 0 1 .11-.04h.03c.03-.02.07-.03.11-.03l.03-.01.11-.02h.04l.1-.02h.04l.12-.01h.03a3.03 3.03 0 0 1 .3 0h.18l.11.02h.04l.11.03h.03a2.94 2.94 0 0 1 .25.07h.03l.11.05h.03l.1.04.03.02.06.03c.9.4 1.56 1.24 1.73 2.23h10.08c.17-1 .83-1.83 1.73-2.23l.06-.03.04-.02.1-.03.02-.01.11-.04h.03l.11-.04h.03c.03-.02.07-.03.11-.03l.03-.01.11-.02h.04l.1-.02h.04l.11-.01h.04a3.03 3.03 0 0 1 .3 0h.18l.11.02h.04l.11.03h.03a2.94 2.94 0 0 1 .25.07h.03l.1.05h.04l.1.04.03.02.06.03c.9.4 1.56 1.24 1.73 2.23h1.04c.85 0 1.5-.65 1.5-1.5z"/></defs><g><g transform="translate(-183 -950)"><use fill="#de1f26" xlink:href="#fbwna"/></g></g></svg>