<svg xmlns="http://www.w3.org/2000/svg" xmlns:xlink="http://www.w3.org/1999/xlink" width="27" height="30" viewBox="0 0 27 30"><defs><path id="30wba" d="M864.61 948.49l-.5 5.5c0 .16-.1.3-.2.36-.15.05-.25.1-.35.1h-.1c-2.6-.65-6.21-.65-8.77 0-.15.05-.3 0-.4-.1-.1-.1-.2-.2-.2-.35l-.5-5.51c0-.25.1-.45.35-.5 2.1-.7 7.97-.7 10.32 0 .25.05.4.3.35.5zm-1.1.35c-2.26-.5-6.86-.5-8.97 0l.4 4.5a21.56 21.56 0 0 1 8.17 0z"/><path id="30wbb" d="M864.56 965.97v3.51c0 .25-.15.45-.4.5-1.7.35-3.4.5-5.1.5-1.71 0-3.42-.15-5.12-.5a.49.49 0 0 1-.4-.5v-3.5c0-.86.65-1.51 1.5-1.51h8.02c.85 0 1.5.65 1.5 1.5zm-1 3.1v-3.1c0-.3-.2-.5-.5-.5h-8.02c-.3 0-.5.2-.5.5v3.1c3 .56 6.01.56 9.02 0z"/><path id="30wbc" d="M866.57 957.33v3.84l5.26 3.35c.15.1.25.25.25.4v2.5c0 .2-.1.35-.25.45-.1.1-.15.1-.25.1s-.2-.05-.25-.1l-4.76-3.03v6.64c0 .85-.65 1.5-1.5 1.5h-12.03c-.85 0-1.5-.65-1.5-1.5v-6.58l-4.76 3.02c-.05 0-.15.05-.25.05s-.15 0-.25-.05a.53.53 0 0 1-.25-.45v-2.5c0-.15.1-.35.25-.4l5.26-3.35v-4.34l-4.76 3.03c-.05 0-.15.05-.25.05s-.15 0-.25-.05a.53.53 0 0 1-.25-.45v-2.5c0-.16.1-.36.25-.4l5.26-3.36v-4.81c0-1.36.15-2.5.5-3.96.05-.2.2-.3.35-.35l3.16-.7c2.25-.5 4.66-.5 6.96 0l3.16.7c.2 0 .35.15.4.35.35 1.45.5 2.6.5 3.96v5.26l5.26 3.35c.15.1.25.25.25.4v2.5c0 .2-.1.36-.25.46-.1.1-.15.1-.25.1s-.2-.05-.25-.1zm0-2.43v1.3l4.5 2.86v-1.3zm-15.03.75v-1.3l-4.5 2.85v1.3zm0 8.02v-1.3l-4.5 2.85v1.3zm14.03 7.81v-23.1c0-1.15-.1-2.2-.4-3.4l-2.86-.65c-2.1-.5-4.36-.5-6.51 0l-2.86.65c-.3 1.2-.4 2.2-.4 3.4v23.1c0 .3.2.5.5.5h12.03c.3 0 .5-.2.5-.5zm1-9.07v1.3l4.5 2.86v-1.3z"/><path id="30wbd" d="M864.57 956.46v6c0 .3-.2.5-.5.5h-2c-.31 0-.51-.2-.51-.5v-4.5c0-.15.05-.3.2-.4l2-1.5c.15-.1.35-.16.5-.06.16.1.3.26.3.46zm-1 1l-1 .75v3.76h1z"/><path id="30wbe" d="M853.54 962.47v-6.01c0-.2.1-.36.3-.46.15-.1.35-.05.5.05l2 1.5c.16.1.2.26.2.4v4.52c0 .3-.2.5-.5.5h-2c-.3 0-.5-.2-.5-.5zm1-.5h1v-3.76l-1-.75z"/></defs><g><g transform="translate(-846 -943)"><use fill="#de1f26" xlink:href="#30wba"/></g><g transform="translate(-846 -943)"><use fill="#de1f26" xlink:href="#30wbb"/></g><g transform="translate(-846 -943)"><use fill="#de1f26" xlink:href="#30wbc"/></g><g transform="translate(-846 -943)"><use fill="#de1f26" xlink:href="#30wbd"/></g><g transform="translate(-846 -943)"><use fill="#de1f26" xlink:href="#30wbe"/></g></g></svg>