<svg xmlns="http://www.w3.org/2000/svg" xmlns:xlink="http://www.w3.org/1999/xlink" width="30" height="30" viewBox="0 0 30 30"><defs><path id="et9ja" d="M380 894a3 3 0 0 1-3 3 3 3 0 0 1-3-3 3.01 3.01 0 0 1 2.5-2.96v-8.54h-7v8.54A3.01 3.01 0 0 1 372 894a3 3 0 0 1-3 3 3 3 0 0 1-3-3 3.01 3.01 0 0 1 2.5-2.96v-8.54h-7v8.54A3.01 3.01 0 0 1 364 894a3 3 0 0 1-3 3 3 3 0 0 1-3-3 3.01 3.01 0 0 1 2.5-2.96v-8.54H353c-.3 0-.5-.2-.5-.5v-9.04A3.01 3.01 0 0 1 350 870a3 3 0 0 1 3-3 3 3 0 0 1 3 3 3.01 3.01 0 0 1-2.5 2.96v8.54h7v-8.54A3.01 3.01 0 0 1 358 870a3 3 0 0 1 3-3 3 3 0 0 1 3 3 3.01 3.01 0 0 1-2.5 2.96v8.54h7v-8.54A3.01 3.01 0 0 1 366 870a3 3 0 0 1 3-3 3 3 0 0 1 3 3 3.01 3.01 0 0 1-2.5 2.96v8.54h7v-8.54A3.01 3.01 0 0 1 374 870a3 3 0 0 1 3-3 3 3 0 0 1 3 3 3.01 3.01 0 0 1-2.5 2.96v18.08A3.01 3.01 0 0 1 380 894zm-3-22a2 2 0 0 0 2-2 2 2 0 0 0-2-2 2 2 0 0 0-2 2c0 1.1.9 2 2 2zm-8 0a2 2 0 0 0 2-2 2 2 0 0 0-2-2 2 2 0 0 0-2 2c0 1.1.9 2 2 2zm-8 0a2 2 0 0 0 2-2 2 2 0 0 0-2-2 2 2 0 0 0-2 2c0 1.1.9 2 2 2zm-8 0a2 2 0 0 0 2-2 2 2 0 0 0-2-2 2 2 0 0 0-2 2c0 1.1.9 2 2 2zm8 20a2 2 0 0 0-2 2c0 1.1.9 2 2 2a2 2 0 0 0 2-2 2 2 0 0 0-2-2zm8 0a2 2 0 0 0-2 2c0 1.1.9 2 2 2a2 2 0 0 0 2-2 2 2 0 0 0-2-2zm10 2a2 2 0 0 0-2-2 2 2 0 0 0-2 2c0 1.1.9 2 2 2a2 2 0 0 0 2-2z"/></defs><g><g transform="translate(-350 -867)"><use fill="#de1f26" xlink:href="#et9ja"/></g></g></svg>