<svg xmlns="http://www.w3.org/2000/svg" xmlns:xlink="http://www.w3.org/1999/xlink" width="30" height="30" viewBox="0 0 30 30"><defs><path id="7w91a" d="M522.55 873.35l1.5-4c.05-.2.25-.35.45-.35h13c.2 0 .4.15.45.3l1.5 4c.05.15.05.35-.05.45-.1.15-.25.25-.4.25h-16c-.15 0-.3-.1-.4-.2a.49.49 0 0 1-.05-.45zm1.15-.35h14.55l-1.1-3h-12.3z"/><path id="7w91b" d="M525.3 891.5c0 .3.1.55.3.75.9.8 1.95 2.05 1.9 3.2 0 .55-.25 1-.7 1.4-.1.1-.2.15-.3.15H522c-.2 0-.35-.1-.45-.3-.1-.15-.05-.4.05-.55 0 0 .5-.6.4-1.25-.05-.35-.3-.7-.75-1-.9-.55-1.35-1.2-1.4-1.95 0-.45.15-1.2 1.1-1.95.9-.7 2.05-1.05 3.25-1.05h2.8c.25 0 .45.15.5.4.05.25-.1.45-.3.55 0 0-.95.35-1.6.95a.8.8 0 0 0-.3.65zm-.4 1.55c-.4-.4-.65-.95-.65-1.5s.2-1 .6-1.35c.05-.05.15-.1.2-.15h-.9c-1 0-1.95.3-2.65.85-.35.25-.75.65-.7 1.1 0 .45.5.85.9 1.15.7.45 1.1 1 1.2 1.7.15.4.05.8-.05 1.15h3.45c.15-.15.2-.3.2-.5 0-.6-.55-1.5-1.6-2.45z"/><path id="7w91c" d="M538.8 891.5c0 .3.1.55.3.75.9.8 1.95 2.05 1.9 3.2 0 .55-.25 1-.7 1.4-.1.1-.2.15-.3.15h-4.5c-.2 0-.35-.1-.45-.3-.1-.2-.05-.4.05-.55 0 0 .5-.6.4-1.25-.05-.35-.3-.7-.75-1-.9-.55-1.35-1.2-1.4-1.95 0-.45.15-1.2 1.1-1.95.9-.7 2.05-1.05 3.25-1.05h2.8c.25 0 .45.15.5.4.05.25-.1.45-.3.55 0 0-.95.35-1.6.95a.8.8 0 0 0-.3.65zm-.4 1.55c-.4-.4-.65-.95-.65-1.5s.2-1 .6-1.35c.05-.05.15-.1.2-.15h-.9c-1 0-1.95.3-2.65.85-.35.25-.75.65-.7 1.1 0 .45.5.85.9 1.15.7.45 1.1 1 1.2 1.7.15.4.05.8-.05 1.15h3.45c.15-.15.2-.3.2-.5 0-.6-.55-1.5-1.6-2.45z"/><path id="7w91d" d="M546 873.25v1.25c0 .3-.2.5-.5.5h-2.68l.13.3.02.06a5.8 5.8 0 0 1 .88 4.69l-.2.77-.05.23-.01.03-.64 2.52a.49.49 0 0 1-.5.4h-.95v2.5c0 .85-.65 1.5-1.5 1.5h-4c-.85 0-1.5-.65-1.5-1.5V884H528v2.5c0 .85-.65 1.5-1.5 1.5h-4c-.85 0-1.5-.65-1.5-1.5V884h-1.55a.49.49 0 0 1-.5-.4l-.6-2.35a.53.53 0 0 1-.05-.15l-.25-1.05a6.63 6.63 0 0 1-.08-2.16 5.47 5.47 0 0 1 1.15-2.75l.06-.14h-2.68c-.3 0-.5-.2-.5-.5v-1.25c0-1.25 1-2.25 2.25-2.25h2.68l1.62-3.7c.05-.2.25-.3.45-.3h16c.2 0 .4.1.45.3l1.62 3.7h2.68c1.25 0 2.25 1 2.25 2.25zm-24.82-.35l-.78 1.8a.7.7 0 0 1-.06.1l-.09.2h21.45l-3.05-7h-15.3zm-.9-.4l.21-.5h-2.24c-.7 0-1.25.55-1.25 1.25v.75h2.6zm-1.06 8h3.48l-1-2h-2.75v.48c.02.28.05.57.1.87zM527 884h-5v2.5c0 .3.2.5.5.5h4c.3 0 .5-.2.5-.5zm13.5 2.5V884h-5v2.5c0 .3.2.5.5.5h4c.3 0 .5-.2.5-.5zm.5-3.5h1.05l.38-1.5h-3.93a.6.6 0 0 1-.45-.25.45.45 0 0 1 0-.5l1.5-3c.1-.15.25-.3.45-.3h2.86c-.14-.51-.36-1-.66-1.45h-22.5c-.3.45-.5.96-.63 1.5H522c.2 0 .35.1.45.3l1.5 3c.1.15.05.35 0 .5-.1.1-.3.2-.45.2h-4.03l.38 1.5H541zm1.8-3.2c.1-.4.15-.85.15-1.3h-2.7l-.95 2h3.35zm2.2-6.55c0-.7-.55-1.25-1.25-1.25h-2.24l.22.5.67 1.5h2.6z"/></defs><g><g transform="translate(-516 -867)"><use fill="#de1f26" xlink:href="#7w91a"/></g><g transform="translate(-516 -867)"><use fill="#de1f26" xlink:href="#7w91b"/></g><g transform="translate(-516 -867)"><use fill="#de1f26" xlink:href="#7w91c"/></g><g transform="translate(-516 -867)"><use fill="#de1f26" xlink:href="#7w91d"/></g></g></svg>