<svg xmlns="http://www.w3.org/2000/svg" xmlns:xlink="http://www.w3.org/1999/xlink" width="30" height="30" viewBox="0 0 30 30"><defs><path id="ywkta" d="M711 872.5V897h-30v-24.5h4.88c.78-.42 5.64-3.04 8.3-4.71a2.49 2.49 0 0 1 3.63 0c2.67 1.68 7.53 4.3 8.32 4.71zm-15-4.5c-.44 0-.84.2-1.11.5v.01c-.13.14-.26.34-.33.6l-.03.08a1.5 1.5 0 1 0 2.93 0l-.01-.07A1.5 1.5 0 0 0 696 868zm-8.03 4.5h16.06c-1.52-.82-3.74-2.06-5.53-3.12v.12a2.5 2.5 0 1 1-5-.12c-1.8 1.06-4.01 2.3-5.53 3.12zm-5.97 1v2.5h28v-2.5zm28 22.5v-19h-28v19z"/><path id="ywktb" d="M692 881a.5.5 0 1 1 1 0 .5.5 0 0 1-1 0z"/><path id="ywktc" d="M695.5 881a.5.5 0 1 1 1 0 .5.5 0 0 1-1 0z"/><path id="ywktd" d="M699 881a.5.5 0 1 1 1 0 .5.5 0 0 1-1 0z"/><path id="ywkte" d="M702.5 881a.5.5 0 1 1 1 0 .5.5 0 0 1-1 0z"/><path id="ywktf" d="M706 881a.5.5 0 1 1 1 0 .5.5 0 0 1-1 0z"/><path id="ywktg" d="M685 885a.5.5 0 1 1 1 0 .5.5 0 0 1-1 0z"/><path id="ywkth" d="M688.5 885a.5.5 0 1 1 1 0 .5.5 0 0 1-1 0z"/><path id="ywkti" d="M692 885a.5.5 0 1 1 1 0 .5.5 0 0 1-1 0z"/><path id="ywktj" d="M695.5 885a.5.5 0 1 1 1 0 .5.5 0 0 1-1 0z"/><path id="ywktk" d="M699 885a.5.5 0 1 1 1 0 .5.5 0 0 1-1 0z"/><path id="ywktl" d="M702.5 885a.5.5 0 1 1 1 0 .5.5 0 0 1-1 0z"/><path id="ywktm" d="M706 885a.5.5 0 1 1 1 0 .5.5 0 0 1-1 0z"/><path id="ywktn" d="M685 888.5a.5.5 0 1 1 1 0 .5.5 0 0 1-1 0z"/><path id="ywkto" d="M688.5 888.5a.5.5 0 1 1 1 0 .5.5 0 0 1-1 0z"/><path id="ywktp" d="M692 888.5a.5.5 0 1 1 1 0 .5.5 0 0 1-1 0z"/><path id="ywktq" d="M695.5 888.5a.5.5 0 1 1 1 0 .5.5 0 0 1-1 0z"/><path id="ywktr" d="M699 888.5a.5.5 0 1 1 1 0 .5.5 0 0 1-1 0z"/><path id="ywkts" d="M702.5 888.5a.5.5 0 1 1 1 0 .5.5 0 0 1-1 0z"/><path id="ywktt" d="M706 888.5a.5.5 0 1 1 1 0 .5.5 0 0 1-1 0z"/><path id="ywktu" d="M685 892.5a.5.5 0 1 1 1 0 .5.5 0 0 1-1 0z"/><path id="ywktv" d="M688.5 892.5a.5.5 0 1 1 1 0 .5.5 0 0 1-1 0z"/><path id="ywktw" d="M692 892.5a.5.5 0 1 1 1 0 .5.5 0 0 1-1 0z"/><path id="ywktx" d="M695.5 892.5a.5.5 0 1 1 1 0 .5.5 0 0 1-1 0z"/><path id="ywkty" d="M699 892.5a.5.5 0 1 1 1 0 .5.5 0 0 1-1 0z"/></defs><g><g transform="translate(-681 -867)"><use fill="#de1f26" xlink:href="#ywkta"/></g><g transform="translate(-681 -867)"><use fill="#de1f26" xlink:href="#ywktb"/></g><g transform="translate(-681 -867)"><use fill="#de1f26" xlink:href="#ywktc"/></g><g transform="translate(-681 -867)"><use fill="#de1f26" xlink:href="#ywktd"/></g><g transform="translate(-681 -867)"><use fill="#de1f26" xlink:href="#ywkte"/></g><g transform="translate(-681 -867)"><use fill="#de1f26" xlink:href="#ywktf"/></g><g transform="translate(-681 -867)"><use fill="#de1f26" xlink:href="#ywktg"/></g><g transform="translate(-681 -867)"><use fill="#de1f26" xlink:href="#ywkth"/></g><g transform="translate(-681 -867)"><use fill="#de1f26" xlink:href="#ywkti"/></g><g transform="translate(-681 -867)"><use fill="#de1f26" xlink:href="#ywktj"/></g><g transform="translate(-681 -867)"><use fill="#de1f26" xlink:href="#ywktk"/></g><g transform="translate(-681 -867)"><use fill="#de1f26" xlink:href="#ywktl"/></g><g transform="translate(-681 -867)"><use fill="#de1f26" xlink:href="#ywktm"/></g><g transform="translate(-681 -867)"><use fill="#de1f26" xlink:href="#ywktn"/></g><g transform="translate(-681 -867)"><use fill="#de1f26" xlink:href="#ywkto"/></g><g transform="translate(-681 -867)"><use fill="#de1f26" xlink:href="#ywktp"/></g><g transform="translate(-681 -867)"><use fill="#de1f26" xlink:href="#ywktq"/></g><g transform="translate(-681 -867)"><use fill="#de1f26" xlink:href="#ywktr"/></g><g transform="translate(-681 -867)"><use fill="#de1f26" xlink:href="#ywkts"/></g><g transform="translate(-681 -867)"><use fill="#de1f26" xlink:href="#ywktt"/></g><g transform="translate(-681 -867)"><use fill="#de1f26" xlink:href="#ywktu"/></g><g transform="translate(-681 -867)"><use fill="#de1f26" xlink:href="#ywktv"/></g><g transform="translate(-681 -867)"><use fill="#de1f26" xlink:href="#ywktw"/></g><g transform="translate(-681 -867)"><use fill="#de1f26" xlink:href="#ywktx"/></g><g transform="translate(-681 -867)"><use fill="#de1f26" xlink:href="#ywkty"/></g></g></svg>